<?xml version="1.0" encoding="UTF-8" standalone="no"?>
<!-- Created with Inkscape (http://www.inkscape.org/) -->

<svg
   width="15.999999"
   height="15.999999"
   viewBox="0 0 4.233333 4.233333"
   version="1.1"
   id="svg1"
   xml:space="preserve"
   xmlns="http://www.w3.org/2000/svg"
   xmlns:svg="http://www.w3.org/2000/svg"><defs
     id="defs1" /><g
     id="layer7"
     transform="matrix(0.03004218,0,0,0.03004218,-1.0176652,-2.1469623)"
     style="fill:#394a71;fill-opacity:1"><path
       id="rect9"
       style="fill:#394a71;fill-opacity:1;stroke-width:0.272782"
       d="m 58.77419,94.254195 c -5.956276,0 -10.751281,4.795002 -10.751281,10.751285 V 164.1383 H 37.271627 v 17.56017 H 115.04001 V 164.1383 H 58.77419 v -58.77471 h 107.15573 v -0.35811 c 0,-5.956283 -4.795,-10.751285 -10.75128,-10.751285 z m 75.61812,20.427175 c -4.76502,0 -8.60102,3.83652 -8.60102,8.60154 v 49.09778 c 0,4.76502 3.836,8.60103 8.60102,8.60103 h 26.87847 c 4.76502,0 8.60154,-3.83601 8.60154,-8.60103 v -49.09778 c 0,-4.76502 -3.83652,-8.60154 -8.60154,-8.60154 z m -1.07487,8.95966 h 27.59522 v 44.79778 h -27.59522 z" /></g></svg>
