<?xml version="1.0" encoding="UTF-8" standalone="no"?>
<!-- Created with Inkscape (http://www.inkscape.org/) -->

<svg
   width="15.999999"
   height="15.999999"
   viewBox="0 0 4.233333 4.233333"
   version="1.1"
   id="svg1"
   xml:space="preserve"
   xmlns="http://www.w3.org/2000/svg"
   xmlns:svg="http://www.w3.org/2000/svg"><defs
     id="defs1" /><g
     id="layer2"
     style="display:inline"><path
       id="path2"
       style="display:none;fill:#1a1a1a;stroke-width:0.00808329"
       d="M 2.010799,0.27974234 A 1.8658281,1.8658281 0 0 0 0.14496351,2.1455778 1.8658281,1.8658281 0 0 0 2.010799,4.0113966 1.8658281,1.8658281 0 0 0 3.8766185,2.1455778 1.8658281,1.8658281 0 0 0 2.010799,0.27974234 Z M 1.910152,1.0036226 H 2.177248 V 2.2307357 H 1.9101525 Z M 1.3873746,1.2331595 1.5497198,1.4177957 c -0.2301771,0.1607539 -0.367317,0.4238046 -0.367316,0.7045594 4.9e-6,0.4746051 0.3847481,0.8593499 0.8593548,0.8593532 0.4746128,3.2e-6 0.8593656,-0.3847414 0.8593708,-0.8593532 3e-6,-0.2547539 -0.1594688,-0.5118674 -0.3550177,-0.675145 L 2.7387544,1.2538428 c 0.2687215,0.21137 0.4255994,0.5343574 0.4256031,0.8762473 -2.7e-6,0.6157134 -0.4991354,1.1148432 -1.1148469,1.1148467 -0.6157184,6.5e-6 -1.11486042,-0.4991298 -1.11486292,-1.1148467 5e-7,-0.3538846 0.16801572,-0.6867515 0.45272692,-0.8969306 z" /></g><g
     id="layer3"><path
       style="fill:#1a1a1a;stroke-width:0.264583"
       id="path3"
       d="M 1.6692718,1.0831979 0.92104918,1.5151845 a 0.07025073,0.07025073 30 0 1 -0.1053761,-0.060839 l 0,-0.89102871 a 0.06468436,0.06468436 150 0 1 0.0970265,-0.0560183 L 1.6692718,0.94410575 a 0.08030492,0.08030492 90 0 1 0,0.13909215 z"
       transform="matrix(0,3.5487902,-3.5487902,0,5.7767547,-2.2090122)" /></g></svg>
