<?xml version="1.0" encoding="UTF-8" standalone="no"?>
<!-- Created with Inkscape (http://www.inkscape.org/) -->

<svg
   width="15.999999"
   height="15.999999"
   viewBox="0 0 4.233333 4.233333"
   version="1.1"
   id="svg1"
   xml:space="preserve"
   xmlns="http://www.w3.org/2000/svg"
   xmlns:svg="http://www.w3.org/2000/svg"><defs
     id="defs1" /><g
     id="layer2"
     style="display:inline"><path
       id="path2"
       style="display:inline;fill:#1a1a1a;stroke-width:0.00808329"
       d="M 2.1850204,0.2163891 A 1.8658281,1.8658281 0 0 0 0.31918493,2.0822246 1.8658281,1.8658281 0 0 0 2.1850204,3.9480434 1.8658281,1.8658281 0 0 0 4.0508399,2.0822246 1.8658281,1.8658281 0 0 0 2.1850204,0.2163891 Z m -0.100647,0.72388021 h 0.267096 V 2.1673825 H 2.0843739 Z M 1.561596,1.1698063 1.7239412,1.3544425 C 1.4937641,1.5151964 1.3566242,1.7782471 1.3566252,2.0590019 1.3566301,2.533607 1.7413733,2.9183518 2.21598,2.9183551 2.6905928,2.9183583 3.0753456,2.5336137 3.0753508,2.0590019 3.0753538,1.804248 2.915882,1.5471345 2.7203331,1.3838569 L 2.9129758,1.1904896 C 3.1816973,1.4018596 3.3385752,1.724847 3.3385789,2.0667369 3.3385762,2.6824503 2.8394435,3.1815801 2.223732,3.1815836 1.6080136,3.1815901 1.1088716,2.6824538 1.1088691,2.0667369 1.1088696,1.7128523 1.2768848,1.3799854 1.561596,1.1698063 Z" /></g></svg>
