<?xml version="1.0" encoding="UTF-8" standalone="no"?>
<!-- Created with Inkscape (http://www.inkscape.org/) -->

<svg
   width="15.999999"
   height="15.999999"
   viewBox="0 0 4.233333 4.233333"
   version="1.1"
   id="svg1"
   xml:space="preserve"
   xmlns="http://www.w3.org/2000/svg"
   xmlns:svg="http://www.w3.org/2000/svg"><defs
     id="defs1" /><g
     id="layer4"
     transform="matrix(0.02539808,0,0,0.02539808,-0.57487288,-1.4169699)"
     style="fill:#394a71;fill-opacity:1"><path
       id="path2"
       style="fill:#394a71;fill-opacity:1;stroke-width:0.264583"
       d="M 48.381543,-73.109749 V -99.27146 c 0,0 46.230703,1.792307 75.259487,-36.55436 29.02878,-38.34667 26.16171,-76.33539 26.16171,-76.33539 h 22.21983 c 0,0 2.5087,48.38137 -26.16171,87.44479 -28.6704,39.063428 -76.334894,51.24829 -97.479317,51.606671 z m 0.400492,-50.555571 v -25.46821 c 0,0 27.373871,-0.66949 42.425834,-21.45554 15.051971,-20.78604 13.797611,-42.10958 13.797611,-42.10958 h 22.75726 c 0,0 -0.89603,33.15034 -15.41042,52.68206 -14.514402,19.53171 -27.33159,33.63901 -63.570285,36.35127 z m 15.585096,-49.66932 a 19.259386,19.259386 0 0 1 -19.259807,-19.25929 19.259386,19.259386 0 0 1 19.259807,-19.25929 19.259386,19.259386 0 0 1 19.259289,19.25929 19.259386,19.259386 0 0 1 -19.259289,19.25929 z"
       transform="scale(1,-1)" /></g></svg>
