<?xml version="1.0" encoding="UTF-8" standalone="no"?>
<!-- Created with Inkscape (http://www.inkscape.org/) -->

<svg
   width="210mm"
   height="297mm"
   viewBox="0 0 210 297"
   version="1.1"
   id="svg1"
   xml:space="preserve"
   xmlns="http://www.w3.org/2000/svg"
   xmlns:svg="http://www.w3.org/2000/svg"><defs
     id="defs1" /><g
     id="layer4"
     style="display:inline"><path
       id="path5"
       style="display:inline;fill:#ffffff;stroke-width:0.361809"
       d="M 107.15522,51.077502 A 81.352232,81.352232 0 0 0 51.779268,72.834314 L 63.849333,84.45376 A 64.108866,64.108866 0 0 1 107.1733,67.598975 64.108866,64.108866 0 0 1 150.24561,84.2238 L 162.19217,72.519604 A 81.352232,81.352232 0 0 0 107.15522,51.077502 Z m 0.0181,31.79961 a 48.861354,48.861354 0 0 0 -48.862131,48.861098 48.861354,48.861354 0 0 0 13.435873,33.65221 l 10.452075,-9.85469 2.275313,-2.31201 c 0,0 9.661893,9.74236 22.26531,9.26972 12.43935,-0.4665 23.30452,-9.26972 23.30452,-9.26972 0,0 10.78172,10.41473 11.02103,11.60239 l 1.05472,1.06092 A 48.861354,48.861354 0 0 0 156.0344,131.73821 48.861354,48.861354 0 0 0 107.1733,82.877112 Z m 68.44027,5.601208 -12.38064,12.13053 a 64.108866,64.108866 0 0 1 8.04912,31.09939 64.108866,64.108866 0 0 1 -64.10875,64.10875 64.108866,64.108866 0 0 1 -64.109262,-64.10875 64.108866,64.108866 0 0 1 7.888407,-30.80897 L 38.451917,88.86486 a 81.352232,81.352232 0 0 0 -12.648324,43.56478 81.352232,81.352232 0 0 0 81.351627,81.35266 81.352232,81.352232 0 0 0 81.35317,-81.35266 81.352232,81.352232 0 0 0 -12.89482,-43.95132 z m -68.09042,10.124964 a 9.1888819,9.0663633 0 0 1 9.18911,9.066116 9.1888819,9.0663633 0 0 1 -9.18911,9.06663 9.1888819,9.0663633 0 0 1 -9.189101,-9.06663 9.1888819,9.0663633 0 0 1 9.189101,-9.066116 z" /></g></svg>
